<?xml version="1.0" encoding="UTF-8"?>
<!DOCTYPE svg PUBLIC "-//W3C//DTD SVG 1.1//EN" "http://www.w3.org/Graphics/SVG/1.1/DTD/svg11.dtd">
<!-- Creator: CorelDRAW 2020 (64-Bit) -->
<svg xmlns="http://www.w3.org/2000/svg" xml:space="preserve" width="565px" height="585px" version="1.1" style="shape-rendering:geometricPrecision; text-rendering:geometricPrecision; image-rendering:optimizeQuality; fill-rule:evenodd; clip-rule:evenodd"
viewBox="0 0 563.32 583.07"
 xmlns:xlink="http://www.w3.org/1999/xlink"
 xmlns:xodm="http://www.corel.com/coreldraw/odm/2003">
 <defs>
  <style type="text/css">
   <![CDATA[
    .fil0 {fill:#052E59}
    .fil1 {fill:#09021F}
    .fil2 {fill:#10043B}
    .fil3 {fill:#E2FF0D}
    .fil5 {fill:white}
    .fil4 {fill:white;fill-rule:nonzero}
   ]]>
  </style>
 </defs>
 <g id="Слой_x0020_1">
  <metadata id="CorelCorpID_0Corel-Layer"/>
  <g id="_2060381436240">
   <g>
    <g>
     <polygon class="fil0" points="281.66,14.86 367.06,69.89 452.46,124.92 68.68,372.23 89.77,248.58 110.86,124.92 196.26,69.89 "/>
     <polygon class="fil1" points="494.64,372.23 435.54,471.39 376.44,570.55 281.66,570.55 186.87,570.55 127.78,471.39 68.68,372.23 "/>
     <polygon class="fil2" points="494.64,372.23 452.46,124.92 68.68,372.23 "/>
    </g>
    <path class="fil3" d="M288.41 4.35l175.44 113.06c14.64,85.74 29.27,171.48 43.88,257.23 -41.4,69.48 -82.81,138.95 -124.22,208.43l-203.7 0c-41.41,-69.47 -82.82,-138.95 -124.22,-208.43 14.61,-85.75 29.24,-171.49 43.87,-257.23l182.2 -117.41 6.75 4.35zm-6.75 10.51l170.8 110.06 42.18 247.31 -118.2 198.32 -189.57 0 -118.19 -198.32 42.18 -247.31 170.8 -110.06z"/>
   </g>
   <polygon class="fil2" points="12.52,305.1 550.8,305.1 550.8,510.06 12.52,510.06 "/>
   <path class="fil3" d="M12.52 292.58l57.06 0 -2.14 12.52 -54.92 0 0 204.96 123.77 0 7.46 12.52 -143.75 0 0 -230 12.52 0zm481.22 0l69.58 0 0 230 -143.75 0 7.46 -12.52 123.77 0 0 -204.96 -54.92 0 -2.14 -12.52z"/>
   <g>
    <path class="fil4" d="M124.07 367.66l-22.76 0 0 -22.44c0,-1.84 -1.17,-2.76 -3.5,-2.76 -2.44,0 -3.66,0.92 -3.66,2.76l0 78.7c0,1.84 1.22,2.76 3.66,2.76 2.33,0 3.5,-0.92 3.5,-2.79l0 -28.1 22.76 0 0 28.94c0,5.4 -2.65,9.73 -7.97,13.01 -5.31,3.25 -11.3,4.88 -17.99,4.88 -19.32,0 -29,-6.83 -29,-20.46l0 -73.2c0,-14.74 9.68,-22.11 29,-22.11 17.32,0 25.96,6.72 25.96,20.16l0 20.65zm5.23 28.35l22.77 0 0 26.12c0,2.6 1.57,3.9 4.71,3.9 3.04,0 4.55,-1.3 4.55,-3.87l0 -13.47c0,-4.12 -2.76,-8.97 -8.26,-14.53 -10.65,-10.29 -17.26,-17.23 -19.87,-20.75 -2.6,-3.55 -3.9,-7.43 -3.9,-11.68l0 -12.77c0,-14.74 9.68,-22.11 29,-22.11 17.32,0 25.96,6.72 25.96,20.16l0 19.7 -22.76 0 0 -20.87c0,-2.25 -1.28,-3.38 -3.82,-3.38 -2.98,0 -4.48,2.14 -4.48,6.42l0.49 7.4c0,4.23 2.82,9.13 8.46,14.74 10.46,10 17.12,16.96 19.97,20.92 2.85,3.99 4.26,8.46 4.26,13.5l0 14.5c0,15.12 -9.68,22.68 -29.06,22.68 -18.67,0 -28.02,-6.88 -28.02,-20.65l0 -25.96zm149.57 45.63l-22.28 0 0 -63.9 -13.03 63.9 -17.24 0 -14.93 -63.9 0 63.9 -19.51 0 0 -113.82 32.14 0 11.43 59.05 9.95 -59.05 33.47 0 0 113.82zm89.27 -73.98l-22.77 0 0 -22.44c0,-1.84 -1.16,-2.76 -3.49,-2.76 -2.44,0 -3.66,0.92 -3.66,2.76l0 78.7c0,1.84 1.22,2.76 3.66,2.76 2.33,0 3.49,-0.92 3.49,-2.79l0 -28.1 22.77 0 0 28.94c0,5.4 -2.66,9.73 -7.97,13.01 -5.31,3.25 -11.3,4.88 -18,4.88 -19.32,0 -28.99,-6.83 -28.99,-20.46l0 -73.2c0,-14.74 9.67,-22.11 28.99,-22.11 17.32,0 25.97,6.72 25.97,20.16l0 20.65zm5.23 -39.84l25.04 0 0 95.45c0,2.28 1.41,3.41 4.2,3.41 2.73,0 4.09,-1.13 4.09,-3.41l0 -95.45 25.04 0 0 94.18c0,6.55 -2.74,11.62 -8.18,15.23 -5.45,3.6 -12.44,5.39 -20.95,5.39 -7.92,0 -14.75,-1.63 -20.54,-4.85 -5.8,-3.23 -8.7,-8.43 -8.7,-15.61l0 -94.34zm88.15 71.87l0 41.95 -24.39 0 0 -113.82 26.29 0c10.41,0 18.16,1.33 23.2,3.96 5.06,2.66 7.58,8.05 7.58,16.21l0 31.54c0,7.48 -2.05,12.74 -6.17,15.83 -4.15,3.11 -12.96,4.55 -26.51,4.33zm8.29 -22.27l0 -27.32c0,-4.01 -2.76,-6.02 -8.29,-6.02l0 39.35c5.53,0 8.29,-2 8.29,-6.01z"/>
    <path class="fil4" d="M112.26 482.94c-3.02,0 -5.52,-1 -7.5,-2.99 -1.98,-2 -2.97,-4.44 -2.97,-7.33 0,-2.89 0.99,-5.33 2.97,-7.33 1.98,-1.99 4.48,-2.99 7.5,-2.99 1.84,0 3.54,0.44 5.08,1.32 1.54,0.89 2.72,2.08 3.56,3.58l-1.77 1.03c-0.63,-1.22 -1.56,-2.19 -2.79,-2.91 -1.24,-0.72 -2.6,-1.08 -4.08,-1.08 -2.49,0 -4.52,0.81 -6.1,2.42 -1.58,1.62 -2.37,3.6 -2.37,5.96 0,2.36 0.79,4.34 2.37,5.96 1.58,1.61 3.61,2.42 6.1,2.42 1.48,0 2.84,-0.36 4.08,-1.08 1.23,-0.72 2.16,-1.69 2.79,-2.91l1.77 1c-0.82,1.5 -2,2.7 -3.55,3.59 -1.55,0.9 -3.25,1.34 -5.09,1.34zm23.45 -2.15c-1.45,1.43 -3.22,2.15 -5.31,2.15 -2.1,0 -3.87,-0.72 -5.32,-2.15 -1.46,-1.44 -2.18,-3.21 -2.18,-5.32 0,-2.11 0.72,-3.88 2.18,-5.32 1.45,-1.43 3.22,-2.15 5.32,-2.15 2.09,0 3.86,0.72 5.31,2.15 1.46,1.44 2.19,3.21 2.19,5.32 0,2.11 -0.73,3.88 -2.19,5.32zm-9.31 -1.31c1.09,1.09 2.42,1.64 4,1.64 1.57,0 2.9,-0.55 3.99,-1.64 1.08,-1.09 1.62,-2.43 1.62,-4.01 0,-1.58 -0.54,-2.91 -1.62,-4 -1.09,-1.1 -2.42,-1.64 -3.99,-1.64 -1.58,0 -2.91,0.54 -4,1.64 -1.08,1.09 -1.62,2.42 -1.62,4 0,1.58 0.54,2.92 1.62,4.01zm24.67 -11.14l1.88 0 0 14.26 -1.88 0 0 -2.22c-1.07,1.71 -2.66,2.56 -4.79,2.56 -1.73,0 -3.1,-0.52 -4.09,-1.58 -1,-1.06 -1.5,-2.48 -1.5,-4.26l0 -8.76 1.88 0 0 8.76c0,1.27 0.34,2.26 1.01,2.96 0.68,0.71 1.63,1.06 2.87,1.06 1.37,0 2.48,-0.44 3.34,-1.3 0.85,-0.87 1.28,-2.2 1.28,-4.01l0 -7.47zm12.55 -0.34c1.72,0 3.09,0.53 4.09,1.58 1,1.06 1.49,2.48 1.49,4.27l0 8.75 -1.88 0 0 -8.75c0,-1.28 -0.34,-2.27 -1.01,-2.97 -0.68,-0.7 -1.63,-1.05 -2.87,-1.05 -1.36,0 -2.48,0.43 -3.33,1.29 -0.86,0.87 -1.29,2.2 -1.29,4.01l0 7.47 -1.88 0 0 -14.26 1.88 0 0 2.23c1.07,-1.71 2.67,-2.57 4.8,-2.57zm16.79 2.17l-4.11 0 0 8.64c0,0.78 0.16,1.33 0.46,1.67 0.3,0.33 0.76,0.5 1.37,0.51 0.61,0.01 1.37,-0.01 2.28,-0.04l0 1.65c-2,0.3 -3.49,0.16 -4.49,-0.43 -1,-0.59 -1.5,-1.71 -1.5,-3.36l0 -8.64 -2.99 0 0 -1.83 2.99 0 0 -3.42 1.88 -0.57 0 3.99 4.11 0 0 1.83zm8.87 -2.17c2.11,0 3.81,0.75 5.12,2.24 1.3,1.49 1.95,3.25 1.95,5.29 0,0.21 -0.02,0.5 -0.06,0.88l-12.52 0c0.2,1.45 0.81,2.59 1.84,3.44 1.04,0.84 2.32,1.27 3.84,1.27 1.08,0 2.02,-0.23 2.81,-0.67 0.79,-0.45 1.38,-1.03 1.78,-1.76l1.65 0.97c-0.62,1.01 -1.48,1.81 -2.56,2.4 -1.09,0.59 -2.32,0.88 -3.71,0.88 -2.24,0 -4.07,-0.7 -5.47,-2.11 -1.41,-1.4 -2.11,-3.19 -2.11,-5.36 0,-2.13 0.69,-3.91 2.08,-5.33 1.39,-1.43 3.17,-2.14 5.36,-2.14zm0 1.83c-1.48,0 -2.73,0.44 -3.72,1.32 -1,0.89 -1.59,2.03 -1.79,3.44l10.64 0c-0.19,-1.5 -0.77,-2.67 -1.74,-3.51 -0.97,-0.84 -2.1,-1.25 -3.39,-1.25zm11.95 0.88c0.87,-1.73 2.37,-2.6 4.5,-2.6l0 1.83c-1.29,0 -2.37,0.38 -3.22,1.14 -0.86,0.76 -1.28,1.96 -1.28,3.59l0 7.93 -1.89 0 0 -14.26 1.89 0 0 2.37zm28.45 12.23c-1.82,0 -3.39,-0.43 -4.69,-1.29 -1.3,-0.87 -2.21,-2.06 -2.72,-3.58l1.71 -1c0.36,1.23 1.03,2.2 2,2.89 0.97,0.7 2.21,1.04 3.73,1.04 1.48,0 2.64,-0.32 3.47,-0.98 0.82,-0.66 1.24,-1.53 1.24,-2.61 0,-1.05 -0.38,-1.83 -1.14,-2.37 -0.77,-0.53 -2.02,-1.08 -3.77,-1.65 -2.07,-0.68 -3.44,-1.24 -4.1,-1.65 -1.53,-0.92 -2.28,-2.24 -2.28,-3.97 0,-1.69 0.58,-3.02 1.76,-4 1.18,-0.98 2.64,-1.47 4.36,-1.47 1.56,0 2.91,0.4 4.05,1.21 1.14,0.81 1.99,1.84 2.54,3.09l-1.68 0.94c-0.91,-2.2 -2.55,-3.3 -4.91,-3.3 -1.23,0 -2.23,0.3 -2.99,0.91 -0.76,0.61 -1.14,1.45 -1.14,2.54 0,0.99 0.34,1.73 1.03,2.22 0.68,0.5 1.81,1 3.39,1.51 0.72,0.25 1.24,0.42 1.56,0.53 0.31,0.1 0.76,0.28 1.36,0.51 0.6,0.24 1.04,0.45 1.33,0.63 0.28,0.18 0.63,0.43 1.04,0.74 0.41,0.32 0.7,0.63 0.88,0.94 0.18,0.32 0.35,0.7 0.49,1.14 0.14,0.45 0.21,0.93 0.21,1.44 0,1.7 -0.61,3.05 -1.85,4.07 -1.24,1.01 -2.86,1.52 -4.88,1.52zm17 -12.77l-4.11 0 0 8.64c0,0.78 0.15,1.33 0.46,1.67 0.3,0.33 0.76,0.5 1.37,0.51 0.6,0.01 1.37,-0.01 2.28,-0.04l0 1.65c-2,0.3 -3.5,0.16 -4.49,-0.43 -1,-0.59 -1.5,-1.71 -1.5,-3.36l0 -8.64 -2.99 0 0 -1.83 2.99 0 0 -3.42 1.88 -0.57 0 3.99 4.11 0 0 1.83zm5.02 0.54c0.87,-1.73 2.37,-2.6 4.5,-2.6l0 1.83c-1.29,0 -2.37,0.38 -3.22,1.14 -0.86,0.76 -1.28,1.96 -1.28,3.59l0 7.93 -1.89 0 0 -14.26 1.89 0 0 2.37zm8.98 -5.79c-0.27,0.27 -0.59,0.4 -0.97,0.4 -0.38,0 -0.7,-0.13 -0.97,-0.4 -0.27,-0.26 -0.4,-0.59 -0.4,-0.97 0,-0.38 0.13,-0.7 0.4,-0.97 0.27,-0.26 0.59,-0.4 0.97,-0.4 0.38,0 0.7,0.14 0.97,0.4 0.26,0.27 0.4,0.59 0.4,0.97 0,0.38 -0.14,0.71 -0.4,0.97zm-1.91 17.68l0 -14.26 1.88 0 0 14.26 -1.88 0zm17.39 0l-2.51 0 -7.13 -6.87 0 6.87 -1.88 0 0 -19.96 1.88 0 0 12 6.79 -6.3 2.57 0 -7.36 6.85 7.64 7.41zm7.73 -14.6c2.11,0 3.81,0.75 5.12,2.24 1.3,1.49 1.95,3.25 1.95,5.29 0,0.21 -0.02,0.5 -0.06,0.88l-12.51 0c0.18,1.45 0.8,2.59 1.83,3.44 1.04,0.84 2.32,1.27 3.84,1.27 1.08,0 2.02,-0.23 2.81,-0.67 0.79,-0.45 1.38,-1.03 1.78,-1.76l1.65 0.97c-0.62,1.01 -1.48,1.81 -2.56,2.4 -1.09,0.59 -2.32,0.88 -3.71,0.88 -2.24,0 -4.07,-0.7 -5.47,-2.11 -1.41,-1.4 -2.11,-3.19 -2.11,-5.36 0,-2.13 0.69,-3.91 2.08,-5.33 1.39,-1.43 3.17,-2.14 5.36,-2.14zm0 1.83c-1.48,0 -2.73,0.44 -3.72,1.32 -1,0.89 -1.6,2.03 -1.78,3.44l10.63 0c-0.19,-1.5 -0.77,-2.67 -1.74,-3.51 -0.97,-0.84 -2.1,-1.25 -3.39,-1.25zm35.73 -7.19l0 19.96 -2 0 0 -16.94 -6.99 11.69 -0.28 0 -6.99 -11.69 0 16.94 -1.99 0 0 -19.96 2.48 0 6.64 11.12 6.65 -11.12 2.48 0zm16.53 5.7l1.89 0 0 14.26 -1.89 0 0 -2.79c-1.31,2.09 -3.23,3.13 -5.75,3.13 -2.04,0 -3.77,-0.72 -5.21,-2.16 -1.43,-1.45 -2.15,-3.22 -2.15,-5.31 0,-2.09 0.72,-3.86 2.15,-5.3 1.44,-1.45 3.17,-2.17 5.21,-2.17 2.52,0 4.44,1.05 5.75,3.14l0 -2.8zm-9.6 11.14c1.08,1.09 2.41,1.64 3.99,1.64 1.58,0 2.91,-0.55 3.99,-1.64 1.08,-1.09 1.62,-2.43 1.62,-4.01 0,-1.58 -0.54,-2.91 -1.62,-4 -1.08,-1.1 -2.41,-1.64 -3.99,-1.64 -1.58,0 -2.91,0.54 -3.99,1.64 -1.09,1.09 -1.63,2.42 -1.63,4 0,1.58 0.54,2.92 1.63,4.01zm16.96 -7.4c0,0.64 0.29,1.16 0.86,1.54 0.57,0.38 1.26,0.67 2.08,0.88 0.82,0.21 1.63,0.44 2.45,0.7 0.82,0.26 1.51,0.68 2.08,1.28 0.57,0.6 0.86,1.39 0.86,2.36 0,1.21 -0.48,2.2 -1.44,2.96 -0.96,0.76 -2.2,1.14 -3.72,1.14 -1.37,0 -2.54,-0.3 -3.5,-0.91 -0.96,-0.61 -1.63,-1.4 -2.01,-2.37l1.6 -0.94c0.27,0.74 0.75,1.33 1.44,1.76 0.69,0.42 1.52,0.64 2.47,0.64 0.93,0 1.71,-0.19 2.33,-0.56 0.63,-0.37 0.95,-0.94 0.95,-1.72 0,-0.65 -0.29,-1.16 -0.86,-1.54 -0.57,-0.38 -1.26,-0.68 -2.08,-0.89 -0.82,-0.21 -1.64,-0.44 -2.45,-0.7 -0.82,-0.25 -1.51,-0.68 -2.08,-1.28 -0.58,-0.6 -0.86,-1.38 -0.86,-2.35 0,-1.16 0.46,-2.13 1.38,-2.91 0.93,-0.78 2.09,-1.17 3.5,-1.17 1.16,0 2.17,0.26 3.05,0.78 0.87,0.53 1.52,1.24 1.94,2.13l-1.57 0.91c-0.55,-1.33 -1.69,-1.99 -3.42,-1.99 -0.82,0 -1.52,0.19 -2.11,0.58 -0.59,0.39 -0.89,0.95 -0.89,1.67zm18.45 -1.91l-4.11 0 0 8.64c0,0.78 0.16,1.33 0.46,1.67 0.3,0.33 0.76,0.5 1.37,0.51 0.61,0.01 1.37,-0.01 2.28,-0.04l0 1.65c-1.99,0.3 -3.49,0.16 -4.49,-0.43 -1,-0.59 -1.5,-1.71 -1.5,-3.36l0 -8.64 -2.99 0 0 -1.83 2.99 0 0 -3.42 1.88 -0.57 0 3.99 4.11 0 0 1.83zm8.87 -2.17c2.11,0 3.82,0.75 5.12,2.24 1.3,1.49 1.95,3.25 1.95,5.29 0,0.21 -0.02,0.5 -0.06,0.88l-12.51 0c0.19,1.45 0.8,2.59 1.84,3.44 1.03,0.84 2.31,1.27 3.83,1.27 1.08,0 2.02,-0.23 2.81,-0.67 0.79,-0.45 1.38,-1.03 1.78,-1.76l1.65 0.97c-0.62,1.01 -1.48,1.81 -2.56,2.4 -1.09,0.59 -2.32,0.88 -3.71,0.88 -2.24,0 -4.07,-0.7 -5.47,-2.11 -1.41,-1.4 -2.11,-3.19 -2.11,-5.36 0,-2.13 0.69,-3.91 2.08,-5.33 1.39,-1.43 3.17,-2.14 5.36,-2.14zm0 1.83c-1.48,0 -2.72,0.44 -3.72,1.32 -1,0.89 -1.59,2.03 -1.78,3.44l10.63 0c-0.19,-1.5 -0.77,-2.67 -1.74,-3.51 -0.97,-0.84 -2.1,-1.25 -3.39,-1.25zm11.95 0.88c0.87,-1.73 2.37,-2.6 4.5,-2.6l0 1.83c-1.29,0 -2.36,0.38 -3.22,1.14 -0.86,0.76 -1.28,1.96 -1.28,3.59l0 7.93 -1.89 0 0 -14.26 1.89 0 0 2.37zm7.98 1.37c0,0.64 0.29,1.16 0.86,1.54 0.57,0.38 1.26,0.67 2.08,0.88 0.81,0.21 1.63,0.44 2.45,0.7 0.82,0.26 1.51,0.68 2.08,1.28 0.57,0.6 0.86,1.39 0.86,2.36 0,1.21 -0.48,2.2 -1.44,2.96 -0.96,0.76 -2.2,1.14 -3.73,1.14 -1.36,0 -2.53,-0.3 -3.49,-0.91 -0.96,-0.61 -1.63,-1.4 -2.01,-2.37l1.6 -0.94c0.27,0.74 0.74,1.33 1.44,1.76 0.69,0.42 1.51,0.64 2.46,0.64 0.94,0 1.72,-0.19 2.34,-0.56 0.63,-0.37 0.94,-0.94 0.94,-1.72 0,-0.65 -0.28,-1.16 -0.85,-1.54 -0.57,-0.38 -1.27,-0.68 -2.08,-0.89 -0.82,-0.21 -1.64,-0.44 -2.45,-0.7 -0.82,-0.25 -1.52,-0.68 -2.09,-1.28 -0.57,-0.6 -0.85,-1.38 -0.85,-2.35 0,-1.16 0.46,-2.13 1.38,-2.91 0.92,-0.78 2.09,-1.17 3.49,-1.17 1.16,0 2.18,0.26 3.05,0.78 0.88,0.53 1.53,1.24 1.94,2.13l-1.56 0.91c-0.56,-1.33 -1.7,-1.99 -3.43,-1.99 -0.81,0 -1.52,0.19 -2.11,0.58 -0.58,0.39 -0.88,0.95 -0.88,1.67zm28.2 10.86c-3.02,0 -5.52,-1 -7.5,-2.99 -1.97,-2 -2.96,-4.44 -2.96,-7.33 0,-2.89 0.99,-5.33 2.96,-7.33 1.98,-1.99 4.48,-2.99 7.5,-2.99 1.85,0 3.54,0.44 5.08,1.32 1.54,0.89 2.72,2.08 3.56,3.58l-1.77 1.03c-0.62,-1.22 -1.56,-2.19 -2.79,-2.91 -1.24,-0.72 -2.6,-1.08 -4.08,-1.08 -2.49,0 -4.52,0.81 -6.1,2.42 -1.58,1.62 -2.37,3.6 -2.37,5.96 0,2.36 0.79,4.34 2.37,5.96 1.58,1.61 3.61,2.42 6.1,2.42 1.48,0 2.84,-0.36 4.08,-1.08 1.23,-0.72 2.17,-1.69 2.79,-2.91l1.77 1c-0.82,1.5 -2,2.7 -3.55,3.59 -1.55,0.9 -3.24,1.34 -5.09,1.34zm21.67 -14.6l1.88 0 0 14.26 -1.88 0 0 -2.22c-1.06,1.71 -2.66,2.56 -4.79,2.56 -1.73,0 -3.09,-0.52 -4.09,-1.58 -1,-1.06 -1.5,-2.48 -1.5,-4.26l0 -8.76 1.88 0 0 8.76c0,1.27 0.34,2.26 1.02,2.96 0.67,0.71 1.63,1.06 2.86,1.06 1.37,0 2.48,-0.44 3.34,-1.3 0.85,-0.87 1.28,-2.2 1.28,-4.01l0 -7.47zm13.52 -0.34c2.03,0 3.77,0.72 5.2,2.17 1.44,1.44 2.15,3.21 2.15,5.3 0,2.09 -0.71,3.86 -2.15,5.31 -1.43,1.44 -3.17,2.16 -5.2,2.16 -2.53,0 -4.45,-1.04 -5.76,-3.13l0 8.49 -1.88 0 0 -19.96 1.88 0 0 2.8c1.31,-2.09 3.23,-3.14 5.76,-3.14zm-4.14 11.48c1.09,1.09 2.42,1.64 3.99,1.64 1.58,0 2.91,-0.55 4,-1.64 1.08,-1.09 1.62,-2.43 1.62,-4.01 0,-1.58 -0.54,-2.91 -1.62,-4 -1.09,-1.1 -2.42,-1.64 -4,-1.64 -1.57,0 -2.9,0.54 -3.99,1.64 -1.08,1.09 -1.62,2.42 -1.62,4 0,1.58 0.54,2.92 1.62,4.01zm-241.43 -4.78l0 -1.82 10.27 0 0 1.82 -10.27 0z"/>
   </g>
   <g>
    <path class="fil4" d="M264.1 265.16c-1.41,0 -2.75,-0.29 -4.03,-0.86 -1.28,-0.57 -2.4,-1.37 -3.36,-2.39 -0.96,-1.02 -1.73,-2.21 -2.31,-3.58 -0.56,-1.36 -0.85,-2.84 -0.85,-4.43 0,-1.57 0.29,-3.04 0.85,-4.42 0.58,-1.37 1.35,-2.57 2.31,-3.59 0.96,-1.02 2.08,-1.81 3.36,-2.39 1.28,-0.57 2.62,-0.86 4.03,-0.86 1.22,0 2.35,0.2 3.41,0.61 1.06,0.41 2,0.96 2.81,1.64 0.81,0.68 1.49,1.46 2.05,2.36 0.57,0.89 0.99,1.82 1.24,2.78l-3.53 0c-0.18,-0.56 -0.45,-1.11 -0.79,-1.66 -0.34,-0.54 -0.76,-1.01 -1.27,-1.41 -0.5,-0.39 -1.08,-0.71 -1.74,-0.96 -0.65,-0.25 -1.37,-0.37 -2.18,-0.37 -0.91,0 -1.81,0.21 -2.67,0.61 -0.87,0.41 -1.63,0.98 -2.3,1.72 -0.68,0.74 -1.22,1.61 -1.63,2.62 -0.41,1.01 -0.62,2.11 -0.62,3.32 0,1.19 0.21,2.29 0.62,3.3 0.41,1.01 0.95,1.88 1.63,2.62 0.67,0.74 1.43,1.32 2.3,1.73 0.86,0.41 1.76,0.62 2.67,0.62 0.87,0 1.67,-0.15 2.41,-0.44 0.74,-0.29 1.39,-0.69 1.96,-1.18 0.56,-0.49 1.02,-1.07 1.39,-1.72 0.37,-0.67 0.62,-1.36 0.75,-2.11l-6.68 0 0 -3.18 9.85 0 0 11.45 -2.46 0 -0.88 -2.12c-0.47,0.45 -1.02,0.84 -1.66,1.17 -0.54,0.29 -1.2,0.55 -1.99,0.78 -0.78,0.23 -1.68,0.34 -2.69,0.34z"/>
    <path id="1" class="fil4" d="M284.16 248.97c0.92,0 1.76,0.14 2.52,0.43 0.76,0.3 1.41,0.7 1.95,1.2 0.54,0.5 0.96,1.1 1.26,1.78 0.3,0.68 0.44,1.42 0.44,2.22l0 10.39 -2.28 0 -0.71 -1.59c-0.31,0.34 -0.67,0.63 -1.1,0.88 -0.38,0.23 -0.85,0.44 -1.43,0.61 -0.57,0.18 -1.25,0.27 -2.06,0.27 -1.76,0 -3.11,-0.44 -4.04,-1.32 -0.94,-0.87 -1.41,-2.02 -1.41,-3.42 0,-0.81 0.16,-1.53 0.46,-2.18 0.31,-0.65 0.83,-1.2 1.56,-1.65 0.74,-0.45 1.74,-0.81 3.01,-1.07 1.27,-0.26 2.88,-0.38 4.82,-0.38l0 -0.54c0,-0.8 -0.25,-1.44 -0.75,-1.92 -0.51,-0.48 -1.25,-0.73 -2.24,-0.73 -1.05,0 -1.82,0.19 -2.3,0.57 -0.48,0.38 -0.77,0.84 -0.86,1.38l-3.16 0c0.09,-1.41 0.68,-2.58 1.77,-3.52 1.08,-0.94 2.6,-1.41 4.55,-1.41zm-1.22 13.37c1.34,0 2.38,-0.35 3.11,-1.03 0.73,-0.69 1.1,-1.53 1.1,-2.51l0 -0.86c-1.4,0 -2.54,0.06 -3.41,0.19 -0.86,0.14 -1.54,0.31 -2.04,0.54 -0.49,0.22 -0.82,0.5 -0.98,0.82 -0.17,0.33 -0.25,0.7 -0.25,1.1 0,0.44 0.21,0.85 0.63,1.21 0.43,0.36 1.04,0.54 1.84,0.54z"/>
    <path id="2" class="fil4" d="M310.39 248.97c0.76,0 1.46,0.14 2.12,0.43 0.65,0.3 1.22,0.73 1.71,1.29 0.5,0.57 0.89,1.26 1.18,2.07 0.3,0.8 0.44,1.71 0.44,2.72l0 9.51 -3.16 0 0 -9.51c0,-1.05 -0.3,-1.9 -0.9,-2.55 -0.61,-0.65 -1.3,-0.98 -2.09,-0.98 -0.8,0 -1.5,0.33 -2.1,0.98 -0.59,0.65 -0.89,1.5 -0.89,2.55l0 9.51 -3.18 0 0 -9.51c0,-1.05 -0.3,-1.9 -0.89,-2.55 -0.6,-0.65 -1.3,-0.98 -2.11,-0.98 -0.8,0 -1.5,0.33 -2.09,0.98 -0.6,0.65 -0.9,1.5 -0.9,2.55l0 9.51 -3.16 0 0 -15.85 2.29 0 0.7 1.6c0.29,-0.33 0.63,-0.63 1.02,-0.9 0.33,-0.2 0.74,-0.4 1.22,-0.59 0.48,-0.19 1.02,-0.28 1.63,-0.28 0.76,0 1.41,0.12 1.94,0.38 0.54,0.26 1,0.55 1.38,0.85 0.42,0.38 0.79,0.79 1.08,1.24 0,0 0.1,-0.12 0.31,-0.38 0.19,-0.24 0.49,-0.52 0.89,-0.84 0.41,-0.32 0.9,-0.61 1.48,-0.87 0.59,-0.26 1.28,-0.38 2.08,-0.38z"/>
    <path id="3" class="fil4" d="M323.23 264.99l-3.16 0 0 -15.85 3.16 0 0 15.85zm-1.58 -18.31c-0.54,0 -1,-0.19 -1.37,-0.56 -0.38,-0.37 -0.57,-0.83 -0.57,-1.38 0,-0.54 0.19,-1 0.57,-1.37 0.37,-0.37 0.83,-0.56 1.37,-0.56 0.54,0 1,0.19 1.37,0.56 0.39,0.37 0.57,0.83 0.57,1.37 0,0.54 -0.18,1 -0.57,1.37 -0.37,0.38 -0.83,0.57 -1.37,0.57z"/>
    <path id="4" class="fil4" d="M335.02 248.97c0.88,0 1.7,0.17 2.47,0.51 0.78,0.35 1.45,0.81 2.02,1.41 0.58,0.6 1.03,1.32 1.36,2.16 0.33,0.84 0.5,1.77 0.5,2.79l0 9.15 -3.17 0 0 -9.15c0,-0.51 -0.1,-1 -0.3,-1.48 -0.19,-0.47 -0.47,-0.88 -0.81,-1.23 -0.35,-0.36 -0.74,-0.64 -1.19,-0.86 -0.44,-0.21 -0.91,-0.32 -1.4,-0.32 -0.54,0 -1.05,0.11 -1.52,0.32 -0.47,0.22 -0.88,0.5 -1.23,0.86 -0.35,0.35 -0.62,0.76 -0.82,1.23 -0.2,0.46 -0.31,0.96 -0.31,1.48l0 9.15 -3.16 0 0 -15.85 2.29 0 0.7 1.6c0.31,-0.33 0.67,-0.63 1.09,-0.9 0.37,-0.2 0.85,-0.4 1.42,-0.59 0.57,-0.19 1.27,-0.28 2.06,-0.28z"/>
    <path id="5" class="fil4" d="M359.31 249.14l0 15.14c0,0.96 -0.17,1.86 -0.51,2.67 -0.34,0.82 -0.82,1.53 -1.44,2.14 -0.62,0.6 -1.38,1.06 -2.27,1.39 -0.9,0.33 -1.89,0.49 -2.99,0.49 -0.96,0 -1.83,-0.13 -2.61,-0.4 -0.77,-0.27 -1.44,-0.63 -2.02,-1.08 -0.57,-0.45 -1.05,-0.97 -1.42,-1.56 -0.38,-0.6 -0.65,-1.23 -0.81,-1.89l3.16 0c0.27,0.53 0.68,1.02 1.26,1.46 0.57,0.43 1.38,0.65 2.44,0.65 1.25,0 2.23,-0.36 2.96,-1.08 0.73,-0.71 1.09,-1.64 1.09,-2.79l0 -1.58c-0.3,0.33 -0.67,0.63 -1.1,0.88 -0.38,0.23 -0.83,0.43 -1.37,0.61 -0.54,0.17 -1.18,0.26 -1.93,0.26 -0.96,0 -1.88,-0.2 -2.76,-0.59 -0.89,-0.39 -1.66,-0.94 -2.31,-1.63 -0.67,-0.69 -1.18,-1.52 -1.57,-2.45 -0.38,-0.94 -0.58,-1.96 -0.58,-3.06 0,-1.1 0.2,-2.12 0.58,-3.06 0.39,-0.94 0.9,-1.76 1.57,-2.45 0.65,-0.69 1.42,-1.24 2.31,-1.64 0.88,-0.4 1.8,-0.6 2.76,-0.6 0.8,0 1.49,0.09 2.07,0.28 0.57,0.19 1.04,0.39 1.41,0.59 0.42,0.27 0.79,0.57 1.1,0.9l0.7 -1.6 2.28 0zm-7.18 12.32c0.57,0 1.11,-0.12 1.63,-0.37 0.53,-0.25 1,-0.59 1.39,-1.02 0.41,-0.43 0.73,-0.94 0.98,-1.51 0.24,-0.57 0.37,-1.19 0.37,-1.84 0,-0.66 -0.13,-1.27 -0.37,-1.85 -0.25,-0.58 -0.57,-1.08 -0.98,-1.52 -0.39,-0.44 -0.86,-0.78 -1.4,-1.03 -0.54,-0.24 -1.09,-0.37 -1.65,-0.37 -0.57,0 -1.11,0.13 -1.65,0.37 -0.54,0.25 -1.01,0.59 -1.41,1.03 -0.4,0.44 -0.73,0.94 -0.97,1.51 -0.25,0.57 -0.37,1.2 -0.37,1.86 0,0.65 0.12,1.27 0.37,1.84 0.24,0.57 0.57,1.08 0.98,1.51 0.42,0.43 0.89,0.77 1.42,1.02 0.52,0.25 1.08,0.37 1.66,0.37z"/>
    <g>
     <polygon class="fil5" points="285.36,135.38 228.85,102.76 172.33,135.38 228.85,168.01 "/>
     <polygon class="fil5" points="226.69,171.74 170.18,139.12 170.18,204.38 226.69,237 "/>
     <path class="fil5" d="M287.51 139.12l-56.51 32.62 0 65.26 56.51 -32.62 0 -65.26zm-33.96 84.87l10.04 -5.8 0 -15.14 12.47 0 0 -9.69 -34.98 0 0 9.69 12.47 0 0 20.94z"/>
    </g>
    <path class="fil5" d="M263.59 237l-10.04 0 0 -13.01 10.04 -5.8 0 18.81zm44 -9.35c-0.42,1.29 -1.04,2.54 -1.88,3.74 -0.83,1.2 -1.87,2.27 -3.11,3.22 -1.25,0.95 -2.69,1.7 -4.33,2.25 -1.64,0.56 -3.5,0.83 -5.58,0.83 -2.17,0 -4.21,-0.42 -6.13,-1.28 -1.92,-0.85 -3.6,-2.03 -5.06,-3.53 -1.45,-1.5 -2.61,-3.26 -3.46,-5.27 -0.86,-2.01 -1.28,-4.19 -1.28,-6.54 0,-2.36 0.42,-4.54 1.28,-6.55 0.85,-2.01 2.02,-3.76 3.5,-5.26 1.47,-1.51 3.19,-2.68 5.16,-3.54 1.96,-0.85 4.07,-1.28 6.34,-1.28 2.17,0 4.2,0.39 6.09,1.18 1.9,0.78 3.55,1.9 4.96,3.36 1.4,1.45 2.51,3.21 3.32,5.26 0.81,2.06 1.21,4.33 1.21,6.83 0,0.37 -0.02,0.72 -0.07,1.07 -0.04,0.35 -0.09,0.68 -0.13,1.01 -0.05,0.36 -0.1,0.71 -0.14,1.03l-21.83 0c0.37,1.2 1.12,2.31 2.26,3.33 1.13,1.02 2.57,1.52 4.33,1.52 0.87,0 1.62,-0.1 2.25,-0.31 0.62,-0.21 1.12,-0.45 1.49,-0.73 0.46,-0.27 0.83,-0.62 1.11,-1.03l9.7 0.69zm-14.55 -14.55c-1.76,0 -3.2,0.52 -4.33,1.56 -1.14,1.04 -1.89,2.25 -2.26,3.64l13.17 0c-0.37,-1.39 -1.12,-2.6 -2.25,-3.64 -1.13,-1.04 -2.58,-1.56 -4.33,-1.56zm39.83 23.9l-9.7 -14.2 0 14.2 -9.35 0 0 -43.64 9.35 0 0 24.59 8.66 -12.82 10.74 0 -10.74 15.24 11.78 16.63 -10.74 0zm22.86 0l-9.35 0 0 -43.64 9.35 0 0 43.64zm3.47 -31.87l10.04 0 6.93 19.75 6.93 -19.75 10.04 0 -12.81 31.87c-1.62,3.97 -3.36,6.87 -5.23,8.7 -1.87,1.82 -4.29,2.73 -7.24,2.73 -0.37,0 -0.73,-0.01 -1.08,-0.03 -0.34,-0.03 -0.68,-0.06 -1,-0.11 -0.37,-0.04 -0.72,-0.11 -1.04,-0.2l0 -7.97c1.94,0 3.39,-0.41 4.36,-1.21 0.97,-0.81 1.71,-1.91 2.22,-3.29l-12.12 -30.49z"/>
   </g>
  </g>
 </g>
</svg>
